<svg width="590" height="566" viewBox="0 0 590 566" fill="none" xmlns="http://www.w3.org/2000/svg">
<rect width="570" height="490" rx="10" fill="#0073BC"/>
<rect x="348" y="135" width="242" height="431" rx="10" fill="#449CD6"/>
<path d="M135.677 382.661L153.051 400.034L148.819 404.266L131.445 386.893L135.677 382.661ZM159.78 365.388C161.496 363.672 163.377 362.831 165.423 362.864C167.486 362.88 169.441 363.812 171.289 365.66L179.357 373.728L175.149 377.936L167.651 370.437C166.76 369.546 165.836 369.1 164.879 369.1C163.922 369.067 163.031 369.463 162.206 370.288C161.381 371.113 160.977 372.013 160.993 372.986C161.01 373.926 161.463 374.842 162.354 375.733L169.853 383.232L165.646 387.439L158.147 379.94C157.256 379.049 156.332 378.604 155.375 378.604C154.418 378.571 153.527 378.967 152.702 379.792C151.877 380.617 151.473 381.516 151.49 382.489C151.506 383.43 151.96 384.346 152.851 385.237L160.35 392.735L156.118 396.968L142.308 383.158L146.54 378.926L148.272 380.658C148.124 379.652 148.231 378.637 148.594 377.614C148.941 376.575 149.551 375.618 150.425 374.743C151.465 373.704 152.612 373.002 153.866 372.639C155.136 372.26 156.415 372.252 157.702 372.615C157.421 371.377 157.454 370.107 157.801 368.803C158.147 367.5 158.807 366.362 159.78 365.388ZM174.545 364.68C173.126 363.262 172.145 361.752 171.6 360.151C171.072 358.535 170.982 356.975 171.328 355.474C171.675 353.973 172.417 352.653 173.555 351.514C174.529 350.541 175.577 349.889 176.699 349.559C177.837 349.212 178.926 349.163 179.965 349.41L178.01 347.455L182.242 343.223L196.052 357.033L191.82 361.265L189.865 359.31C190.096 360.366 190.038 361.463 189.692 362.602C189.362 363.724 188.71 364.771 187.736 365.745C186.615 366.867 185.303 367.601 183.801 367.947C182.283 368.277 180.716 368.178 179.099 367.65C177.482 367.089 175.964 366.099 174.545 364.68ZM184.915 354.36C183.859 353.304 182.729 352.768 181.525 352.752C180.337 352.719 179.322 353.123 178.48 353.964C177.639 354.806 177.227 355.829 177.243 357.033C177.26 358.205 177.796 359.318 178.852 360.374C179.908 361.43 181.038 361.983 182.242 362.032C183.447 362.049 184.47 361.636 185.311 360.795C186.153 359.953 186.557 358.939 186.524 357.751C186.507 356.546 185.971 355.416 184.915 354.36ZM190.353 334.717C191.326 333.743 192.374 333.092 193.496 332.762C194.634 332.415 195.723 332.366 196.763 332.613L194.807 330.658L199.039 326.426L212.825 340.211C214.095 341.482 214.986 342.884 215.497 344.418C216.042 345.953 216.1 347.545 215.671 349.195C215.258 350.828 214.285 352.412 212.75 353.947C210.704 355.993 208.56 357.164 206.316 357.461C204.088 357.774 202.059 357.197 200.227 355.729L204.41 351.546C205.07 351.942 205.796 352.041 206.588 351.843C207.396 351.662 208.164 351.208 208.889 350.482C209.764 349.607 210.201 348.659 210.201 347.636C210.234 346.613 209.698 345.549 208.592 344.443L206.637 342.488C206.868 343.544 206.827 344.641 206.514 345.78C206.184 346.902 205.532 347.949 204.558 348.923C203.42 350.061 202.1 350.804 200.599 351.15C199.081 351.48 197.513 351.381 195.896 350.853C194.279 350.292 192.762 349.302 191.343 347.883C189.924 346.464 188.942 344.955 188.398 343.354C187.87 341.737 187.779 340.178 188.125 338.677C188.472 337.175 189.214 335.855 190.353 334.717ZM201.712 337.563C200.656 336.507 199.526 335.971 198.322 335.954C197.134 335.921 196.119 336.326 195.278 337.167C194.436 338.008 194.024 339.031 194.04 340.236C194.057 341.407 194.593 342.521 195.649 343.577C196.705 344.633 197.835 345.186 199.039 345.235C200.244 345.252 201.267 344.839 202.108 343.998C202.95 343.156 203.354 342.142 203.321 340.954C203.305 339.749 202.768 338.619 201.712 337.563ZM221.801 317.029C222.197 317.425 222.585 317.862 222.964 318.34L213.387 327.918C214.311 328.71 215.243 329.098 216.183 329.081C217.124 329.032 217.949 328.652 218.658 327.943C219.714 326.887 220.003 325.707 219.524 324.404L224.029 319.9C224.705 321.038 225.101 322.275 225.216 323.612C225.348 324.932 225.167 326.252 224.672 327.572C224.177 328.892 223.369 330.113 222.247 331.234C220.894 332.587 219.401 333.503 217.767 333.982C216.134 334.46 214.484 334.46 212.817 333.982C211.151 333.503 209.6 332.546 208.165 331.111C206.729 329.675 205.764 328.133 205.269 326.483C204.791 324.816 204.791 323.166 205.269 321.533C205.747 319.9 206.671 318.398 208.041 317.029C209.377 315.692 210.846 314.785 212.446 314.306C214.047 313.828 215.655 313.82 217.272 314.282C218.906 314.727 220.415 315.643 221.801 317.029ZM216.356 320.246C215.63 319.52 214.806 319.19 213.882 319.256C212.958 319.322 212.124 319.726 211.382 320.469C210.672 321.178 210.277 321.987 210.194 322.894C210.128 323.785 210.417 324.668 211.06 325.542L216.356 320.246ZM234.824 290.344C236.54 288.628 238.421 287.787 240.467 287.82C242.529 287.836 244.484 288.769 246.332 290.617L254.4 298.685L250.193 302.892L242.694 295.393C241.803 294.502 240.879 294.057 239.922 294.057C238.966 294.024 238.075 294.42 237.25 295.245C236.425 296.07 236.02 296.969 236.037 297.942C236.053 298.883 236.507 299.798 237.398 300.689L244.897 308.188L240.69 312.395L233.191 304.897C232.3 304.006 231.376 303.56 230.419 303.56C229.462 303.527 228.571 303.923 227.746 304.748C226.921 305.573 226.517 306.472 226.533 307.446C226.55 308.386 227.004 309.302 227.895 310.193L235.393 317.692L231.161 321.924L217.352 308.114L221.584 303.882L223.316 305.614C223.168 304.608 223.275 303.593 223.638 302.57C223.984 301.531 224.595 300.574 225.469 299.699C226.509 298.66 227.655 297.959 228.909 297.596C230.18 297.216 231.458 297.208 232.745 297.571C232.465 296.334 232.498 295.063 232.844 293.76C233.191 292.456 233.851 291.318 234.824 290.344ZM254.834 284.392C253.415 282.973 252.433 281.463 251.889 279.863C251.361 278.246 251.27 276.687 251.616 275.186C251.963 273.684 252.705 272.364 253.844 271.226C254.751 270.318 255.766 269.683 256.888 269.32C258.026 268.941 259.132 268.858 260.204 269.073L253.794 262.663L258.026 258.431L276.34 276.745L272.108 280.977L270.128 278.997C270.392 280.053 270.351 281.15 270.005 282.288C269.675 283.41 269.023 284.458 268.05 285.432C266.911 286.57 265.591 287.312 264.09 287.659C262.572 287.989 261.004 287.89 259.388 287.362C257.771 286.801 256.253 285.811 254.834 284.392ZM265.203 274.072C264.148 273.016 263.017 272.48 261.813 272.463C260.625 272.43 259.61 272.834 258.769 273.676C257.927 274.517 257.515 275.54 257.531 276.745C257.548 277.916 258.084 279.03 259.14 280.086C260.196 281.142 261.326 281.694 262.531 281.744C263.735 281.76 264.758 281.348 265.599 280.507C266.441 279.665 266.845 278.65 266.812 277.462C266.796 276.258 266.259 275.128 265.203 274.072ZM285.886 267.595C284.533 268.948 283.024 269.88 281.357 270.391C279.707 270.886 278.033 270.911 276.333 270.466C274.65 270.004 273.091 269.055 271.656 267.62C270.237 266.201 269.305 264.641 268.859 262.942C268.397 261.226 268.422 259.535 268.933 257.869C269.445 256.202 270.377 254.692 271.73 253.34C273.083 251.987 274.593 251.054 276.259 250.543C277.925 250.031 279.617 250.007 281.333 250.469C283.032 250.914 284.591 251.846 286.01 253.265C287.429 254.684 288.361 256.26 288.807 257.992C289.252 259.692 289.211 261.383 288.683 263.066C288.171 264.732 287.239 266.242 285.886 267.595ZM282.223 263.932C283.032 263.124 283.42 262.142 283.387 260.987C283.37 259.815 282.809 258.677 281.704 257.572C280.598 256.466 279.468 255.897 278.313 255.864C277.175 255.814 276.201 256.194 275.393 257.002C274.568 257.827 274.18 258.809 274.23 259.947C274.263 261.069 274.84 262.191 275.962 263.313C277.067 264.419 278.181 265.004 279.303 265.07C280.442 265.12 281.415 264.74 282.223 263.932ZM291.644 233.426C292.617 232.452 293.665 231.801 294.787 231.471C295.925 231.124 297.014 231.075 298.054 231.322L296.098 229.367L300.33 225.135L314.116 238.92C315.386 240.191 316.277 241.593 316.788 243.127C317.333 244.662 317.391 246.254 316.962 247.904C316.549 249.537 315.576 251.121 314.041 252.656C311.995 254.702 309.85 255.873 307.607 256.17C305.379 256.483 303.35 255.906 301.518 254.438L305.701 250.255C306.361 250.651 307.087 250.75 307.879 250.552C308.687 250.371 309.454 249.917 310.18 249.191C311.055 248.316 311.492 247.368 311.492 246.345C311.525 245.322 310.989 244.258 309.883 243.152L307.928 241.197C308.159 242.253 308.118 243.35 307.805 244.489C307.475 245.611 306.823 246.658 305.849 247.632C304.711 248.77 303.391 249.513 301.89 249.859C300.372 250.189 298.804 250.09 297.187 249.562C295.57 249.001 294.053 248.011 292.634 246.592C291.215 245.173 290.233 243.664 289.689 242.063C289.161 240.446 289.07 238.887 289.416 237.386C289.763 235.884 290.505 234.564 291.644 233.426ZM303.003 236.272C301.947 235.216 300.817 234.68 299.613 234.663C298.425 234.63 297.41 235.035 296.569 235.876C295.727 236.718 295.315 237.74 295.331 238.945C295.348 240.116 295.884 241.23 296.94 242.286C297.996 243.342 299.126 243.895 300.33 243.944C301.535 243.961 302.558 243.548 303.399 242.707C304.241 241.865 304.645 240.851 304.612 239.663C304.595 238.458 304.059 237.328 303.003 236.272ZM323.092 215.738C323.488 216.134 323.876 216.571 324.255 217.049L314.678 226.627C315.602 227.419 316.534 227.807 317.474 227.79C318.415 227.741 319.24 227.361 319.949 226.652C321.005 225.596 321.294 224.416 320.815 223.113L325.32 218.609C325.996 219.747 326.392 220.984 326.507 222.321C326.639 223.641 326.458 224.961 325.963 226.281C325.468 227.601 324.66 228.822 323.538 229.944C322.185 231.296 320.692 232.212 319.058 232.691C317.425 233.169 315.775 233.169 314.108 232.691C312.442 232.212 310.891 231.255 309.456 229.82C308.02 228.384 307.055 226.842 306.56 225.192C306.082 223.525 306.082 221.875 306.56 220.242C307.038 218.609 307.962 217.107 309.332 215.738C310.668 214.401 312.137 213.494 313.737 213.015C315.338 212.537 316.946 212.529 318.563 212.991C320.197 213.436 321.706 214.352 323.092 215.738ZM317.647 218.955C316.921 218.229 316.097 217.899 315.173 217.965C314.249 218.031 313.415 218.435 312.673 219.178C311.963 219.887 311.567 220.696 311.485 221.603C311.419 222.494 311.708 223.377 312.351 224.251L317.647 218.955ZM325.176 204.893C324.912 203.639 324.937 202.426 325.251 201.254C325.547 200.067 326.15 199.019 327.057 198.111L331.537 202.591L330.373 203.754C329.318 204.81 328.757 205.833 328.691 206.823C328.608 207.796 329.136 208.852 330.274 209.991L336.684 216.401L332.452 220.633L318.643 206.823L322.875 202.591L325.176 204.893ZM348.928 189.901C349.324 190.297 349.712 190.735 350.092 191.213L340.514 200.791C341.438 201.583 342.37 201.971 343.311 201.954C344.251 201.905 345.076 201.525 345.785 200.816C346.841 199.76 347.13 198.58 346.652 197.277L351.156 192.772C351.832 193.911 352.228 195.148 352.344 196.485C352.476 197.804 352.294 199.124 351.799 200.444C351.304 201.764 350.496 202.985 349.374 204.107C348.021 205.46 346.528 206.376 344.894 206.854C343.261 207.333 341.611 207.333 339.945 206.854C338.278 206.376 336.727 205.419 335.292 203.983C333.856 202.548 332.891 201.005 332.396 199.355C331.918 197.689 331.918 196.039 332.396 194.406C332.875 192.772 333.799 191.271 335.168 189.901C336.505 188.565 337.973 187.658 339.573 187.179C341.174 186.701 342.783 186.692 344.399 187.154C346.033 187.6 347.543 188.515 348.928 189.901ZM343.484 193.119C342.758 192.393 341.933 192.063 341.009 192.129C340.085 192.195 339.252 192.599 338.509 193.341C337.8 194.051 337.404 194.859 337.321 195.767C337.255 196.658 337.544 197.541 338.188 198.415L343.484 193.119ZM352.745 172.424C354.362 170.807 356.177 170.048 358.19 170.147C360.203 170.213 362.125 171.161 363.956 172.993L372.024 181.061L367.817 185.268L360.318 177.769C359.394 176.845 358.437 176.367 357.447 176.334C356.457 176.301 355.558 176.689 354.75 177.497C353.941 178.306 353.553 179.205 353.586 180.195C353.619 181.185 354.098 182.142 355.022 183.066L362.521 190.564L358.289 194.796L344.479 180.987L348.711 176.755L350.542 178.586C350.361 177.547 350.46 176.491 350.839 175.418C351.202 174.329 351.838 173.331 352.745 172.424ZM367.219 172.057C365.783 170.621 364.818 169.078 364.323 167.429C363.845 165.762 363.836 164.12 364.298 162.504C364.777 160.87 365.693 159.377 367.046 158.024C368.778 156.292 370.675 155.302 372.738 155.054C374.817 154.79 376.863 155.302 378.875 156.589L374.371 161.093C372.936 160.416 371.674 160.623 370.585 161.712C369.809 162.487 369.496 163.411 369.644 164.483C369.776 165.539 370.403 166.628 371.525 167.75C372.647 168.872 373.744 169.507 374.817 169.656C375.873 169.788 376.788 169.466 377.564 168.691C378.653 167.602 378.859 166.34 378.182 164.904L382.687 160.4C383.941 162.38 384.444 164.417 384.196 166.513C383.949 168.608 382.967 170.514 381.251 172.23C379.898 173.583 378.405 174.498 376.772 174.977C375.155 175.439 373.513 175.431 371.847 174.952C370.197 174.457 368.654 173.492 367.219 172.057ZM376.833 145.762C376.09 146.504 375.265 146.9 374.358 146.95C373.451 146.966 372.675 146.653 372.032 146.009C371.372 145.349 371.058 144.574 371.091 143.683C371.124 142.759 371.512 141.926 372.254 141.183C372.98 140.457 373.797 140.086 374.704 140.07C375.612 140.02 376.396 140.325 377.056 140.985C377.699 141.629 378.004 142.413 377.971 143.336C377.938 144.227 377.559 145.036 376.833 145.762ZM380.372 145.094L394.182 158.903L389.95 163.135L376.14 149.326L380.372 145.094ZM389.478 149.748C388.059 148.329 387.077 146.82 386.532 145.219C386.004 143.602 385.914 142.043 386.26 140.542C386.607 139.04 387.349 137.72 388.488 136.582C389.461 135.609 390.509 134.957 391.631 134.627C392.769 134.28 393.858 134.231 394.898 134.478L392.942 132.523L397.174 128.291L410.984 142.101L406.752 146.333L404.797 144.378C405.028 145.434 404.97 146.531 404.624 147.669C404.294 148.791 403.642 149.839 402.669 150.813C401.547 151.934 400.235 152.669 398.734 153.015C397.216 153.345 395.648 153.246 394.031 152.718C392.414 152.157 390.896 151.167 389.478 149.748ZM399.847 139.428C398.791 138.372 397.661 137.836 396.457 137.819C395.269 137.786 394.254 138.191 393.413 139.032C392.571 139.874 392.159 140.897 392.175 142.101C392.192 143.272 392.728 144.386 393.784 145.442C394.84 146.498 395.97 147.051 397.174 147.1C398.379 147.117 399.402 146.704 400.243 145.863C401.085 145.021 401.489 144.007 401.456 142.819C401.439 141.614 400.903 140.484 399.847 139.428ZM406.275 132.951C404.856 131.532 403.874 130.022 403.33 128.422C402.802 126.805 402.711 125.246 403.057 123.745C403.404 122.243 404.146 120.923 405.285 119.785C406.192 118.877 407.207 118.242 408.329 117.879C409.467 117.5 410.573 117.417 411.645 117.632L405.235 111.222L409.467 106.99L427.781 125.304L423.549 129.536L421.569 127.556C421.833 128.612 421.792 129.709 421.446 130.847C421.116 131.969 420.464 133.017 419.491 133.991C418.352 135.129 417.032 135.871 415.531 136.218C414.013 136.548 412.445 136.449 410.829 135.921C409.212 135.36 407.694 134.37 406.275 132.951ZM416.644 122.631C415.589 121.575 414.458 121.039 413.254 121.022C412.066 120.989 411.051 121.393 410.21 122.235C409.368 123.076 408.956 124.099 408.972 125.304C408.989 126.475 409.525 127.589 410.581 128.645C411.637 129.701 412.767 130.253 413.972 130.303C415.176 130.319 416.199 129.907 417.04 129.066C417.882 128.224 418.286 127.209 418.253 126.021C418.237 124.817 417.7 123.687 416.644 122.631ZM437.327 116.154C435.974 117.507 434.465 118.439 432.798 118.95C431.148 119.445 429.474 119.47 427.774 119.025C426.091 118.563 424.532 117.614 423.097 116.179C421.678 114.76 420.746 113.2 420.3 111.501C419.838 109.785 419.863 108.094 420.374 106.428C420.886 104.761 421.818 103.251 423.171 101.899C424.524 100.546 426.034 99.6134 427.7 99.102C429.366 98.5905 431.058 98.5657 432.774 99.0277C434.473 99.4732 436.032 100.405 437.451 101.824C438.87 103.243 439.802 104.819 440.248 106.551C440.693 108.251 440.652 109.942 440.124 111.625C439.612 113.291 438.68 114.801 437.327 116.154ZM433.664 112.491C434.473 111.683 434.861 110.701 434.828 109.546C434.811 108.374 434.25 107.236 433.145 106.131C432.039 105.025 430.909 104.456 429.754 104.423C428.616 104.373 427.642 104.753 426.834 105.561C426.009 106.386 425.621 107.368 425.671 108.506C425.704 109.628 426.281 110.75 427.403 111.872C428.508 112.978 429.622 113.563 430.744 113.629C431.883 113.679 432.856 113.299 433.664 112.491ZM439.325 90.7438C439.061 89.4899 439.086 88.2772 439.399 87.1058C439.696 85.9178 440.298 84.8701 441.206 83.9627L445.685 88.4422L444.522 89.6054C443.466 90.6613 442.905 91.6843 442.839 92.6742C442.757 93.6477 443.285 94.7036 444.423 95.8421L450.833 102.252L446.601 106.484L432.791 92.6742L437.023 88.4422L439.325 90.7438Z" fill="#172734"/>
</svg>
