<svg width="219" height="73" viewBox="0 0 219 73" fill="none" xmlns="http://www.w3.org/2000/svg">
<g clip-path="url(#clip0_827_593)">
<mask id="mask0_827_593" style="mask-type:luminance" maskUnits="userSpaceOnUse" x="-17" y="-19" width="253" height="111">
<path d="M-16.3818 -18.4933H235.382V91.4934H-16.3818V-18.4933Z" fill="white"/>
</mask>
<g mask="url(#mask0_827_593)">
<path d="M211.018 73.1624H7.9825C3.51572 73.1624 -0.138916 69.0379 -0.138916 63.9968V9.00346C-0.138916 3.96241 3.51572 -0.162086 7.9825 -0.162086H211.018C215.485 -0.162086 219.139 3.96241 219.139 9.00346V63.9968C219.139 69.0379 215.485 73.1624 211.018 73.1624Z" fill="black"/>
<path d="M211.018 -0.161842H7.9825C3.51572 -0.161842 -0.138916 3.96265 -0.138916 9.00371V63.997C-0.138916 69.0381 3.51572 73.1626 7.9825 73.1626H211.018C215.485 73.1626 219.139 69.0381 219.139 63.997V9.00371C219.139 3.96265 215.485 -0.161842 211.018 -0.161842ZM211.018 1.30464C214.78 1.30464 217.84 4.75822 217.84 9.00371V63.997C217.84 68.2425 214.78 71.6961 211.018 71.6961H7.9825C4.22066 71.6961 1.16051 68.2425 1.16051 63.997V9.00371C1.16051 4.75822 4.22066 1.30464 7.9825 1.30464H211.018Z" fill="#A6A6A6"/>
<path d="M173.555 54.8312H176.586V31.9155H173.555V54.8312ZM200.854 40.17L197.38 50.1055H197.276L193.67 40.17H190.405L195.813 54.0558L192.731 61.7805H195.891L204.225 40.17H200.854ZM183.666 52.2282C182.672 52.2282 181.288 51.6691 181.288 50.2814C181.288 48.5143 183.012 47.8361 184.501 47.8361C185.833 47.8361 186.462 48.1605 187.271 48.6023C187.035 50.725 185.416 52.2282 183.666 52.2282ZM184.032 39.6696C181.837 39.6696 179.563 40.7603 178.625 43.1781L181.314 44.4448C181.889 43.1781 182.96 42.7638 184.084 42.7638C185.651 42.7638 187.245 43.8252 187.271 45.7133V45.948C186.722 45.5942 185.547 45.0644 184.11 45.0644C181.21 45.0644 178.257 46.8627 178.257 50.2228C178.257 53.2896 180.635 55.2657 183.299 55.2657C185.338 55.2657 186.462 54.2336 187.167 53.0238H187.271V54.7927H190.196V46.0066C190.196 41.9389 187.506 39.6696 184.032 39.6696ZM165.301 42.96H160.99V35.1051H165.301C167.566 35.1051 168.853 37.2224 168.853 39.0316C168.853 40.8079 167.566 42.96 165.301 42.96ZM165.223 31.9155H157.96V54.8312H160.99V46.1496H165.223C168.582 46.1496 171.884 43.4036 171.884 39.0316C171.884 34.6597 168.582 31.9155 165.223 31.9155ZM125.621 52.2319C123.527 52.2319 121.775 50.2539 121.775 47.5373C121.775 44.7913 123.527 42.7822 125.621 42.7822C127.689 42.7822 129.31 44.7913 129.31 47.5373C129.31 50.2539 127.689 52.2319 125.621 52.2319ZM129.102 41.4532H128.996C128.316 40.5385 127.008 39.7117 125.359 39.7117C121.905 39.7117 118.739 43.136 118.739 47.5373C118.739 51.9074 121.905 55.3042 125.359 55.3042C127.008 55.3042 128.316 54.4774 128.996 53.5315H129.102V54.6552C129.102 57.6377 127.689 59.2325 125.411 59.2325C123.553 59.2325 122.402 57.7257 121.931 56.4554L119.288 57.6964C120.046 59.7641 122.062 62.303 125.411 62.303C128.97 62.303 131.98 59.9401 131.98 54.1823V40.1828H129.102V41.4532ZM134.074 54.8312H137.109V31.9137H134.074V54.8312ZM141.583 47.2715C141.505 44.2597 143.65 42.7235 145.194 42.7235C146.399 42.7235 147.419 43.4018 147.758 44.377L141.583 47.2715ZM151.004 44.6721C150.429 42.9307 148.674 39.7117 145.09 39.7117C141.531 39.7117 138.575 42.8702 138.575 47.5079C138.575 51.8781 141.505 55.3042 145.429 55.3042C148.596 55.3042 150.429 53.1191 151.187 51.8487L148.832 50.0761C148.047 51.3758 146.974 52.2319 145.429 52.2319C143.886 52.2319 142.786 51.4345 142.08 49.8708L151.317 45.5575L151.004 44.6721ZM77.4106 42.1039V45.4109H84.4226C84.2131 47.2715 83.6641 48.6298 82.8276 49.5739C81.8059 50.7269 80.2092 51.9972 77.4106 51.9972C73.0916 51.9972 69.7164 48.0689 69.7164 43.1965C69.7164 38.3222 73.0916 34.3957 77.4106 34.3957C79.7398 34.3957 81.4404 35.4296 82.696 36.7586L84.7637 34.425C83.0095 32.5351 80.6819 31.0869 77.4106 31.0869C71.4966 31.0869 66.5247 36.5221 66.5247 43.1965C66.5247 49.8708 71.4966 55.3042 77.4106 55.3042C80.6023 55.3042 83.0095 54.1218 84.8937 51.9074C86.8314 49.7223 87.4324 46.6519 87.4324 44.1698C87.4324 43.4018 87.3804 42.6942 87.2749 42.1039H77.4106ZM95.406 52.2319C93.3123 52.2319 91.5061 50.2833 91.5061 47.5079C91.5061 44.7014 93.3123 42.7822 95.406 42.7822C97.4981 42.7822 99.3043 44.7014 99.3043 47.5079C99.3043 50.2833 97.4981 52.2319 95.406 52.2319ZM95.406 39.7117C91.5841 39.7117 88.4703 42.9893 88.4703 47.5079C88.4703 51.9972 91.5841 55.3042 95.406 55.3042C99.2263 55.3042 102.34 51.9972 102.34 47.5079C102.34 42.9893 99.2263 39.7117 95.406 39.7117ZM110.533 52.2319C108.439 52.2319 106.633 50.2833 106.633 47.5079C106.633 44.7014 108.439 42.7822 110.533 42.7822C112.627 42.7822 114.431 44.7014 114.431 47.5079C114.431 50.2833 112.627 52.2319 110.533 52.2319ZM110.533 39.7117C106.713 39.7117 103.599 42.9893 103.599 47.5079C103.599 51.9972 106.713 55.3042 110.533 55.3042C114.353 55.3042 117.467 51.9972 117.467 47.5079C117.467 42.9893 114.353 39.7117 110.533 39.7117Z" fill="white"/>
</g>
<path d="M16.8105 13.6559C16.3394 14.2205 16.0601 15.0967 16.0601 16.2314V56.7725C16.0601 57.909 16.3394 58.7834 16.8105 59.348L16.9307 59.48L37.0555 36.7696V36.5019V36.2325L16.9307 13.5221L16.8105 13.6559Z" fill="url(#paint0_linear_827_593)"/>
<path d="M37.0554 36.2325V36.5019V36.7696L43.7621 44.344L43.9148 44.2468L51.8624 39.1508C54.1315 37.6935 54.1315 35.3104 51.8624 33.8568L43.9148 28.7589L43.7637 28.6617L37.0554 36.2325Z" fill="url(#paint1_linear_827_593)"/>
<path d="M16.8103 59.3481C17.5591 60.2408 18.7952 60.3526 20.1872 59.4617L43.9147 44.2451L37.0554 36.502L16.8103 59.3481Z" fill="url(#paint2_linear_827_593)"/>
<path d="M16.8103 13.6559L37.0554 36.502L43.9147 28.7589L20.1872 13.5441C19.5342 13.1243 18.9154 12.9263 18.3664 12.9263C17.7426 12.9263 17.2083 13.1811 16.8103 13.6559Z" fill="url(#paint3_linear_827_593)"/>
<mask id="mask1_827_593" style="mask-type:luminance" maskUnits="userSpaceOnUse" x="0" y="0" width="219" height="73">
<path d="M0 -1.90735e-06H219V73H0V-1.90735e-06Z" fill="white"/>
</mask>
<g mask="url(#mask1_827_593)">
<mask id="mask2_827_593" style="mask-type:luminance" maskUnits="userSpaceOnUse" x="16" y="44" width="28" height="17">
<path d="M16.811 44.0742H43.9146V60.0762H16.811V44.0742Z" fill="white"/>
</mask>
<g mask="url(#mask2_827_593)">
<g opacity="0.199997">
<path d="M43.7632 44.0742L20.1868 59.1918C18.8679 60.0387 17.6886 59.9819 16.9317 59.212L16.8115 59.3495L16.9317 59.4815C17.6886 60.2514 18.8679 60.3064 20.1868 59.4595L43.9143 44.2446L43.7632 44.0742Z" fill="black"/>
</g>
</g>
<mask id="mask3_827_593" style="mask-type:luminance" maskUnits="userSpaceOnUse" x="16" y="56" width="1" height="4">
<path d="M16.0593 56.5055H16.9321V59.3486H16.0593V56.5055Z" fill="white"/>
</mask>
<g mask="url(#mask3_827_593)">
<g opacity="0.119995">
<path d="M16.8111 59.0808C16.3385 58.5162 16.0591 57.6399 16.0591 56.5052V56.7729C16.0591 57.9076 16.3385 58.7838 16.8111 59.3484L16.9329 59.2127L16.8111 59.0808Z" fill="black"/>
</g>
</g>
<mask id="mask4_827_593" style="mask-type:luminance" maskUnits="userSpaceOnUse" x="43" y="36" width="11" height="9">
<path d="M43.7634 36.5025H53.5647V44.2446H43.7634V36.5025Z" fill="white"/>
</mask>
<g mask="url(#mask4_827_593)">
<g opacity="0.119995">
<path d="M51.8619 38.8807L43.7632 44.0739L43.9142 44.2444L51.8619 39.1483C52.9972 38.4206 53.5641 37.4619 53.5641 36.5032C53.4683 37.3702 52.8917 38.2208 51.8619 38.8807Z" fill="black"/>
</g>
</g>
<mask id="mask5_827_593" style="mask-type:luminance" maskUnits="userSpaceOnUse" x="16" y="12" width="38" height="25">
<path d="M16.0593 12.927H53.5647V36.5017H16.0593V12.927Z" fill="white"/>
</mask>
<g mask="url(#mask5_827_593)">
<g opacity="0.25">
<path d="M20.1864 13.8117L51.8615 34.1226C52.8913 34.7825 53.4696 35.6331 53.5638 36.502C53.5654 35.5432 52.9969 34.5827 51.8615 33.8549L20.1864 13.5441C17.9156 12.0886 16.0591 13.2966 16.0591 16.2314V16.499C16.0591 13.5661 17.9156 12.3562 20.1864 13.8117Z" fill="white"/>
</g>
</g>
<path d="M68.257 22.3167H69.9853C71.1109 22.3167 72.0026 21.9538 72.6605 21.226C73.3183 20.4983 73.6464 19.4791 73.6464 18.1684C73.6464 16.8687 73.3183 15.8532 72.6605 15.1199C72.0026 14.3885 71.1109 14.0219 69.9853 14.0219H68.257V22.3167ZM67.0063 23.6677V12.6691H69.9853C71.4829 12.6691 72.6816 13.1787 73.5798 14.1979C74.478 15.2171 74.9263 16.5406 74.9263 18.1684C74.9263 19.798 74.478 21.1215 73.5798 22.1389C72.6816 23.16 71.4829 23.6677 69.9853 23.6677H67.0063Z" fill="white"/>
<path d="M68.257 22.3167H69.9853C71.1109 22.3167 72.0026 21.9538 72.6605 21.226C73.3183 20.4983 73.6464 19.4791 73.6464 18.1684C73.6464 16.8687 73.3183 15.8532 72.6605 15.1199C72.0026 14.3885 71.1109 14.0219 69.9853 14.0219H68.257V22.3167ZM67.0063 23.6677V12.6691H69.9853C71.4829 12.6691 72.6816 13.1787 73.5798 14.1979C74.478 15.2171 74.9263 16.5406 74.9263 18.1684C74.9263 19.798 74.478 21.1215 73.5798 22.1389C72.6816 23.16 71.4829 23.6677 69.9853 23.6677H67.0063Z" stroke="white" stroke-width="0.266667" stroke-miterlimit="10"/>
<path d="M76.6846 12.6695H77.9369V23.6682H76.6846V12.6695Z" fill="white" stroke="white" stroke-width="0.266667" stroke-miterlimit="10"/>
<path d="M82.9168 23.9136C82.2086 23.9136 81.5183 23.6533 80.8426 23.1308C80.1653 22.6084 79.7218 21.877 79.5139 20.9329L80.6574 20.4123C80.7939 21.0154 81.0716 21.525 81.4939 21.9393C81.9179 22.3536 82.3905 22.5626 82.9168 22.5626C83.4609 22.5626 83.9271 22.4013 84.312 22.0786C84.6986 21.756 84.8903 21.3179 84.8903 20.7643C84.8903 20.1502 84.6986 19.6773 84.312 19.3436C83.9271 19.0118 83.3164 18.702 82.4815 18.4142C81.619 18.1081 80.966 17.7103 80.521 17.2246C80.0775 16.7369 79.8534 16.1155 79.8534 15.3566C79.8534 14.5684 80.1311 13.8828 80.685 13.2999C81.2389 12.7169 81.9601 12.4236 82.8486 12.4236C83.6753 12.4236 84.3462 12.6564 84.8627 13.1221C85.3808 13.5895 85.7171 14.0973 85.8697 14.6509L84.7279 15.188C84.645 14.8415 84.4436 14.517 84.122 14.2201C83.8004 13.925 83.3846 13.7765 82.8762 13.7765C82.3954 13.7765 81.9844 13.9268 81.645 14.2292C81.3039 14.5317 81.1333 14.9075 81.1333 15.3566C81.1333 15.7672 81.2909 16.1137 81.6027 16.3942C81.9179 16.6765 82.3775 16.9294 82.985 17.1549C83.4658 17.329 83.867 17.4977 84.1902 17.6627C84.5118 17.8258 84.8399 18.044 85.1697 18.3153C85.501 18.5866 85.7495 18.9238 85.9185 19.329C86.0858 19.7341 86.1702 20.2015 86.1702 20.735C86.1702 21.2666 86.0728 21.7432 85.8779 22.163C85.6829 22.5827 85.4231 22.9164 85.1014 23.162C84.7782 23.4076 84.4339 23.5946 84.0603 23.7211C83.6883 23.8494 83.3066 23.9136 82.9168 23.9136Z" fill="white"/>
<path d="M82.9168 23.9136C82.2086 23.9136 81.5183 23.6533 80.8426 23.1308C80.1653 22.6084 79.7218 21.877 79.5139 20.9329L80.6574 20.4123C80.7939 21.0154 81.0716 21.525 81.4939 21.9393C81.9179 22.3536 82.3905 22.5626 82.9168 22.5626C83.4609 22.5626 83.9271 22.4013 84.312 22.0786C84.6986 21.756 84.8903 21.3179 84.8903 20.7643C84.8903 20.1502 84.6986 19.6773 84.312 19.3436C83.9271 19.0118 83.3164 18.702 82.4815 18.4142C81.619 18.1081 80.966 17.7103 80.521 17.2246C80.0775 16.7369 79.8534 16.1155 79.8534 15.3566C79.8534 14.5684 80.1311 13.8828 80.685 13.2999C81.2389 12.7169 81.9601 12.4236 82.8486 12.4236C83.6753 12.4236 84.3462 12.6564 84.8627 13.1221C85.3808 13.5895 85.7171 14.0973 85.8697 14.6509L84.7279 15.188C84.645 14.8415 84.4436 14.517 84.122 14.2201C83.8004 13.925 83.3846 13.7765 82.8762 13.7765C82.3954 13.7765 81.9844 13.9268 81.645 14.2292C81.3039 14.5317 81.1333 14.9075 81.1333 15.3566C81.1333 15.7672 81.2909 16.1137 81.6027 16.3942C81.9179 16.6765 82.3775 16.9294 82.985 17.1549C83.4658 17.329 83.867 17.4977 84.1902 17.6627C84.5118 17.8258 84.8399 18.044 85.1697 18.3153C85.501 18.5866 85.7495 18.9238 85.9185 19.329C86.0858 19.7341 86.1702 20.2015 86.1702 20.735C86.1702 21.2666 86.0728 21.7432 85.8779 22.163C85.6829 22.5827 85.4231 22.9164 85.1014 23.162C84.7782 23.4076 84.4339 23.5946 84.0603 23.7211C83.6883 23.8494 83.3066 23.9136 82.9168 23.9136Z" stroke="white" stroke-width="0.266667" stroke-miterlimit="10"/>
<path d="M89.2187 17.8609H91.3157C91.8419 17.8609 92.2642 17.6629 92.581 17.2633C92.8993 16.8637 93.0569 16.4238 93.0569 15.9416C93.0569 15.4595 92.8993 15.0196 92.581 14.62C92.2642 14.2204 91.8419 14.0205 91.3157 14.0205H89.2187V17.8609ZM89.2187 23.6682H87.968V12.6695H91.2881C92.1132 12.6695 92.8295 12.9793 93.4321 13.5989C94.0363 14.2185 94.3368 14.9994 94.3368 15.9416C94.3368 16.8839 94.0363 17.6648 93.4321 18.2825C92.8295 18.904 92.1132 19.2138 91.2881 19.2138H89.2187V23.6682Z" fill="white"/>
<path d="M89.2187 17.8609H91.3157C91.8419 17.8609 92.2642 17.6629 92.581 17.2633C92.8993 16.8637 93.0569 16.4238 93.0569 15.9416C93.0569 15.4595 92.8993 15.0196 92.581 14.62C92.2642 14.2204 91.8419 14.0205 91.3157 14.0205H89.2187V17.8609ZM89.2187 23.6682H87.968V12.6695H91.2881C92.1132 12.6695 92.8295 12.9793 93.4321 13.5989C94.0363 14.2185 94.3368 14.9994 94.3368 15.9416C94.3368 16.8839 94.0363 17.6648 93.4321 18.2825C92.8295 18.904 92.1132 19.2138 91.2881 19.2138H89.2187V23.6682Z" stroke="white" stroke-width="0.266667" stroke-miterlimit="10"/>
<path d="M97.6638 21.326C98.385 22.1509 99.267 22.5615 100.311 22.5615C101.354 22.5615 102.238 22.1509 102.959 21.326C103.68 20.5011 104.042 19.4488 104.042 18.1693C104.042 16.8898 103.68 15.8358 102.959 15.0127C102.238 14.1878 101.354 13.7754 100.311 13.7754C99.267 13.7754 98.385 14.1878 97.6638 15.0127C96.9442 15.8358 96.582 16.8898 96.582 18.1693C96.582 19.4488 96.9442 20.5011 97.6638 21.326ZM103.885 22.2462C102.926 23.3589 101.736 23.9143 100.311 23.9143C98.8869 23.9143 97.6963 23.3589 96.7396 22.2462C95.7812 21.1353 95.3037 19.777 95.3037 18.1693C95.3037 16.5617 95.7812 15.2015 96.7396 14.0907C97.6963 12.9798 98.8869 12.4225 100.311 12.4225C101.728 12.4225 102.915 12.9816 103.878 14.098C104.84 15.2144 105.321 16.5709 105.321 18.1693C105.321 19.777 104.841 21.1353 103.885 22.2462Z" fill="white"/>
<path d="M97.6638 21.326C98.385 22.1509 99.267 22.5615 100.311 22.5615C101.354 22.5615 102.238 22.1509 102.959 21.326C103.68 20.5011 104.042 19.4488 104.042 18.1693C104.042 16.8898 103.68 15.8358 102.959 15.0127C102.238 14.1878 101.354 13.7754 100.311 13.7754C99.267 13.7754 98.385 14.1878 97.6638 15.0127C96.9442 15.8358 96.582 16.8898 96.582 18.1693C96.582 19.4488 96.9442 20.5011 97.6638 21.326ZM103.885 22.2462C102.926 23.3589 101.736 23.9143 100.311 23.9143C98.8869 23.9143 97.6963 23.3589 96.7396 22.2462C95.7812 21.1353 95.3037 19.777 95.3037 18.1693C95.3037 16.5617 95.7812 15.2015 96.7396 14.0907C97.6963 12.9798 98.8869 12.4225 100.311 12.4225C101.728 12.4225 102.915 12.9816 103.878 14.098C104.84 15.2144 105.321 16.5709 105.321 18.1693C105.321 19.777 104.841 21.1353 103.885 22.2462Z" stroke="white" stroke-width="0.266667" stroke-miterlimit="10"/>
<path d="M107.078 23.6682V12.6695H108.603L113.338 21.2247H113.393L113.338 19.1056V12.6695H114.592V23.6682H113.284L108.329 14.697H108.275L108.329 16.8179V23.6682H107.078Z" fill="white"/>
<path d="M107.078 23.6682V12.6695H108.603L113.338 21.2247H113.393L113.338 19.1056V12.6695H114.592V23.6682H113.284L108.329 14.697H108.275L108.329 16.8179V23.6682H107.078Z" stroke="white" stroke-width="0.266667" stroke-miterlimit="10"/>
<path d="M117.994 11.8093H116.904L117.614 9.8424H118.975L117.994 11.8093ZM116.823 12.6691H118.076V23.6677H116.823V12.6691Z" fill="white"/>
<path d="M117.994 11.8093H116.904L117.614 9.8424H118.975L117.994 11.8093ZM116.823 12.6691H118.076V23.6677H116.823V12.6691Z" stroke="white" stroke-width="0.266667" stroke-miterlimit="10"/>
<path d="M122.716 23.6682L119.288 12.6695H120.675L123.343 21.595H123.397L126.175 12.6695H127.562L124.024 23.6682H122.716Z" fill="white"/>
<path d="M122.716 23.6682L119.288 12.6695H120.675L123.343 21.595H123.397L126.175 12.6695H127.562L124.024 23.6682H122.716Z" stroke="white" stroke-width="0.266667" stroke-miterlimit="10"/>
<path d="M134.668 14.021H130.231V17.5076H134.233V18.8293H130.231V22.3159H134.668V23.6687H128.979V12.67H134.668V14.021Z" fill="white"/>
<path d="M134.668 14.021H130.231V17.5076H134.233V18.8293H130.231V22.3159H134.668V23.6687H128.979V12.67H134.668V14.021Z" stroke="white" stroke-width="0.266667" stroke-miterlimit="10"/>
<path d="M136.629 23.6682V12.6695H137.881V22.3172H142.099V23.6682H136.629Z" fill="white"/>
<path d="M136.629 23.6682V12.6695H137.881V22.3172H142.099V23.6682H136.629Z" stroke="white" stroke-width="0.266667" stroke-miterlimit="10"/>
<path d="M146.946 23.6682V12.6695H148.471L153.207 21.2247H153.261L153.207 19.1056V12.6695H154.46V23.6682H153.152L148.198 14.697H148.143L148.198 16.8179V23.6682H146.946Z" fill="white"/>
<path d="M146.946 23.6682V12.6695H148.471L153.207 21.2247H153.261L153.207 19.1056V12.6695H154.46V23.6682H153.152L148.198 14.697H148.143L148.198 16.8179V23.6682H146.946Z" stroke="white" stroke-width="0.266667" stroke-miterlimit="10"/>
<path d="M158.438 21.326C159.159 22.1509 160.041 22.5615 161.086 22.5615C162.128 22.5615 163.012 22.1509 163.733 21.326C164.454 20.5011 164.817 19.4488 164.817 18.1693C164.817 16.8898 164.454 15.8358 163.733 15.0127C163.012 14.1878 162.128 13.7754 161.086 13.7754C160.041 13.7754 159.159 14.1878 158.438 15.0127C157.718 15.8358 157.356 16.8898 157.356 18.1693C157.356 19.4488 157.718 20.5011 158.438 21.326ZM164.659 22.2462C163.701 23.3589 162.51 23.9143 161.086 23.9143C159.661 23.9143 158.47 23.3589 157.514 22.2462C156.555 21.1353 156.078 19.777 156.078 18.1693C156.078 16.5617 156.555 15.2015 157.514 14.0907C158.47 12.9798 159.661 12.4225 161.086 12.4225C162.502 12.4225 163.689 12.9816 164.652 14.098C165.614 15.2144 166.095 16.5709 166.095 18.1693C166.095 19.777 165.616 21.1353 164.659 22.2462Z" fill="white"/>
<path d="M158.438 21.326C159.159 22.1509 160.041 22.5615 161.086 22.5615C162.128 22.5615 163.012 22.1509 163.733 21.326C164.454 20.5011 164.817 19.4488 164.817 18.1693C164.817 16.8898 164.454 15.8358 163.733 15.0127C163.012 14.1878 162.128 13.7754 161.086 13.7754C160.041 13.7754 159.159 14.1878 158.438 15.0127C157.718 15.8358 157.356 16.8898 157.356 18.1693C157.356 19.4488 157.718 20.5011 158.438 21.326ZM164.659 22.2462C163.701 23.3589 162.51 23.9143 161.086 23.9143C159.661 23.9143 158.47 23.3589 157.514 22.2462C156.555 21.1353 156.078 19.777 156.078 18.1693C156.078 16.5617 156.555 15.2015 157.514 14.0907C158.47 12.9798 159.661 12.4225 161.086 12.4225C162.502 12.4225 163.689 12.9816 164.652 14.098C165.614 15.2144 166.095 16.5709 166.095 18.1693C166.095 19.777 165.616 21.1353 164.659 22.2462Z" stroke="white" stroke-width="0.266667" stroke-miterlimit="10"/>
</g>
</g>
<defs>
<linearGradient id="paint0_linear_827_593" x1="35.27" y1="15.8038" x2="4.72967" y2="42.8649" gradientUnits="userSpaceOnUse">
<stop stop-color="#00A0FF"/>
<stop offset="0.00657445" stop-color="#00A1FF"/>
<stop offset="0.2601" stop-color="#00BEFF"/>
<stop offset="0.5122" stop-color="#00D2FF"/>
<stop offset="0.7604" stop-color="#00DFFF"/>
<stop offset="1" stop-color="#00E3FF"/>
</linearGradient>
<linearGradient id="paint1_linear_827_593" x1="54.8176" y1="36.5028" x2="15.515" y2="36.5028" gradientUnits="userSpaceOnUse">
<stop stop-color="#FFE000"/>
<stop offset="0.4087" stop-color="#FFBD00"/>
<stop offset="0.7754" stop-color="#FFA500"/>
<stop offset="1" stop-color="#FF9C00"/>
</linearGradient>
<linearGradient id="paint2_linear_827_593" x1="40.1869" y1="40.7092" x2="-1.22827" y2="77.4063" gradientUnits="userSpaceOnUse">
<stop stop-color="#FF3A44"/>
<stop offset="1" stop-color="#C31162"/>
</linearGradient>
<linearGradient id="paint3_linear_827_593" x1="11.7138" y1="0.160857" x2="30.2074" y2="16.5477" gradientUnits="userSpaceOnUse">
<stop stop-color="#32A071"/>
<stop offset="0.0685" stop-color="#2DA771"/>
<stop offset="0.4762" stop-color="#15CF74"/>
<stop offset="0.8009" stop-color="#06E775"/>
<stop offset="1" stop-color="#00F076"/>
</linearGradient>
<clipPath id="clip0_827_593">
<rect width="219" height="73" fill="white"/>
</clipPath>
</defs>
</svg>
