<svg width="109" height="45" viewBox="0 0 109 45" fill="none" xmlns="http://www.w3.org/2000/svg">
<path d="M99.1992 8.52539H104.807V36H99.1992V8.52539Z" fill="#0073BC"/>
<path d="M69.9023 8.52539H75.4746V22.7461L89.9766 8.52539H97.1133L83.5781 21.6387L97.1133 36H89.6953L79.5703 25.5234L75.4746 29.4785V36H69.9023V8.52539Z" fill="#0073BC"/>
<path d="M39.9023 8.52539H63.2988V13.4121H45.4746V18.8965H61.2598V23.4844H45.4746V31.1309H63.668V36H39.9023V8.52539Z" fill="#0073BC"/>
<path d="M5.18555 27.8262C6.18164 28.3887 7.18945 28.8984 8.20898 29.3555C9.24023 29.8008 10.3066 30.1816 11.4082 30.498C12.5098 30.8027 13.6641 31.0371 14.8711 31.2012C16.0898 31.3652 17.3848 31.4473 18.7559 31.4473C20.4082 31.4473 21.8145 31.3418 22.9746 31.1309C24.1348 30.9082 25.0781 30.6094 25.8047 30.2344C26.543 29.8477 27.0762 29.3906 27.4043 28.8633C27.7441 28.3359 27.9141 27.7617 27.9141 27.1406C27.9141 26.1445 27.498 25.3594 26.666 24.7852C25.834 24.1992 24.5508 23.9062 22.8164 23.9062C22.0547 23.9062 21.252 23.959 20.4082 24.0645C19.5645 24.1582 18.709 24.2637 17.8418 24.3809C16.9863 24.498 16.1367 24.6094 15.293 24.7148C14.4609 24.8086 13.6758 24.8555 12.9375 24.8555C11.707 24.8555 10.5234 24.6973 9.38672 24.3809C8.26172 24.0645 7.25977 23.5898 6.38086 22.957C5.51367 22.3242 4.82227 21.5332 4.30664 20.584C3.79102 19.6348 3.5332 18.5273 3.5332 17.2617C3.5332 16.5117 3.63281 15.7676 3.83203 15.0293C4.04297 14.291 4.37109 13.5879 4.81641 12.9199C5.27344 12.2402 5.85938 11.6133 6.57422 11.0391C7.28906 10.4531 8.15039 9.94922 9.1582 9.52734C10.1777 9.10547 11.3496 8.77734 12.6738 8.54297C14.0098 8.29688 15.5273 8.17383 17.2266 8.17383C18.457 8.17383 19.6934 8.24414 20.9355 8.38477C22.1777 8.51367 23.3848 8.70117 24.5566 8.94727C25.7402 9.19336 26.877 9.49219 27.9668 9.84375C29.0566 10.1836 30.0703 10.5645 31.0078 10.9863L28.5645 15.4863C27.791 15.1465 26.959 14.8359 26.0684 14.5547C25.1777 14.2617 24.2461 14.0098 23.2734 13.7988C22.3008 13.5879 21.293 13.4238 20.25 13.3066C19.2188 13.1777 18.1641 13.1133 17.0859 13.1133C15.5508 13.1133 14.2852 13.2246 13.2891 13.4473C12.3047 13.6699 11.5195 13.957 10.9336 14.3086C10.3477 14.6484 9.9375 15.0352 9.70312 15.4688C9.48047 15.8906 9.36914 16.3125 9.36914 16.7344C9.36914 17.5547 9.73828 18.2285 10.4766 18.7559C11.2148 19.2715 12.3398 19.5293 13.8516 19.5293C14.4609 19.5293 15.1582 19.4883 15.9434 19.4062C16.7402 19.3125 17.5723 19.2129 18.4395 19.1074C19.3184 19.002 20.209 18.9082 21.1113 18.8262C22.0254 18.7324 22.9102 18.6855 23.7656 18.6855C25.3828 18.6855 26.8125 18.8672 28.0547 19.2305C29.3086 19.5938 30.3574 20.1152 31.2012 20.7949C32.0449 21.4629 32.6836 22.2773 33.1172 23.2383C33.5508 24.1875 33.7676 25.2539 33.7676 26.4375C33.7676 28.0195 33.3984 29.4316 32.6602 30.6738C31.9336 31.9043 30.8906 32.9473 29.5312 33.8027C28.1836 34.6465 26.5547 35.291 24.6445 35.7363C22.7344 36.1699 20.6074 36.3867 18.2637 36.3867C16.7168 36.3867 15.2051 36.2871 13.7285 36.0879C12.252 35.9004 10.834 35.6309 9.47461 35.2793C8.12695 34.916 6.83789 34.4883 5.60742 33.9961C4.38867 33.4922 3.25781 32.9414 2.21484 32.3438L5.18555 27.8262Z" fill="#0073BC"/>
</svg>
